HIERARCHY
ROOT Hips
{
	OFFSET 0.000000 0.000000 0.000000
	CHANNELS 6 Xposition Yposition Zposition Xrotation Yrotation Zrotation
	JOINT Spine
	{
		OFFSET 0.000000 0.042231 0.063346
		CHANNELS 3 Xrotation Yrotation Zrotation
		JOINT Spine1
		{
			OFFSET 0.000000 0.014667 0.083179
			CHANNELS 3 Xrotation Yrotation Zrotation
			JOINT Spine2
			{
				OFFSET 0.000000 0.007361 0.084141
				CHANNELS 3 Xrotation Yrotation Zrotation
				JOINT Spine3
				{
					OFFSET 0.000000 0.000000 0.084462
					CHANNELS 3 Xrotation Yrotation Zrotation
					JOINT Neck
					{
						OFFSET 0.000000 -0.031673 0.221713
						CHANNELS 3 Xrotation Yrotation Zrotation
						JOINT Head
						{
							OFFSET 0.000000 -0.020167 0.114371
							CHANNELS 3 Xrotation Yrotation Zrotation
							End Site
							{
								OFFSET 0.000000 0.000000 0.000000
							}
						}
					}
					JOINT RightShoulder
					{
						OFFSET -0.029161 -0.048602 0.157471
						CHANNELS 3 Xrotation Yrotation Zrotation
						JOINT RightArm
						{
							OFFSET -0.144834 0.000000 0.000000
							CHANNELS 3 Xrotation Yrotation Zrotation
							JOINT RightForeArm
							{
								OFFSET -0.274949 0.000000 0.000000
								CHANNELS 3 Xrotation Yrotation Zrotation
								JOINT RightHand
								{
									OFFSET -0.254725 0.000000 0.000000
									CHANNELS 3 Xrotation Yrotation Zrotation
									JOINT RightHandEnd
									{
										OFFSET -0.068160 0.000000 0.000000
										CHANNELS 3 Xrotation Yrotation Zrotation
										End Site
										{
											OFFSET 0.000000 0.000000 0.000000
										}
									}
									JOINT RightHandThumb1
									{
										OFFSET -0.027264 -0.045440 -0.018176
										CHANNELS 3 Xrotation Yrotation Zrotation
										End Site
										{
											OFFSET 0.000000 0.000000 0.000000
										}
									}
								}
							}
						}
					}
					JOINT LeftShoulder
					{
						OFFSET 0.029161 -0.048602 0.157471
						CHANNELS 3 Xrotation Yrotation Zrotation
						JOINT LeftArm
						{
							OFFSET 0.144834 0.000000 0.000000
							CHANNELS 3 Xrotation Yrotation Zrotation
							JOINT LeftForeArm
							{
								OFFSET 0.274949 0.000000 0.000000
								CHANNELS 3 Xrotation Yrotation Zrotation
								JOINT LeftHand
								{
									OFFSET 0.254725 0.000000 0.000000
									CHANNELS 3 Xrotation Yrotation Zrotation
									JOINT LeftHandEnd
									{
										OFFSET 0.068160 0.000000 0.000000
										CHANNELS 3 Xrotation Yrotation Zrotation
										End Site
										{
											OFFSET 0.000000 0.000000 0.000000
										}
									}
									JOINT LeftHandThumb1
									{
										OFFSET 0.027264 -0.045440 -0.018176
										CHANNELS 3 Xrotation Yrotation Zrotation
										End Site
										{
											OFFSET 0.000000 0.000000 0.000000
										}
									}
								}
							}
						}
					}
				}
			}
		}
	}
	JOINT RightUpLeg
	{
		OFFSET -0.086512 0.000000 -0.025273
		CHANNELS 3 Xrotation Yrotation Zrotation
		JOINT RightLeg
		{
			OFFSET 0.000000 0.000000 -0.433119
			CHANNELS 3 Xrotation Yrotation Zrotation
			JOINT RightFoot
			{
				OFFSET 0.000000 0.000000 -0.404688
				CHANNELS 3 Xrotation Yrotation Zrotation
				JOINT RightToeBase
				{
					OFFSET 0.000000 -0.126496 -0.046041
					CHANNELS 3 Xrotation Yrotation Zrotation
					End Site
					{
						OFFSET 0.000000 0.000000 0.000000
					}
				}
			}
		}
	}
	JOINT LeftUpLeg
	{
		OFFSET 0.086512 0.000000 -0.025273
		CHANNELS 3 Xrotation Yrotation Zrotation
		JOINT LeftLeg
		{
			OFFSET 0.000000 0.000000 -0.433119
			CHANNELS 3 Xrotation Yrotation Zrotation
			JOINT LeftFoot
			{
				OFFSET 0.000000 0.000000 -0.404688
				CHANNELS 3 Xrotation Yrotation Zrotation
				JOINT LeftToeBase
				{
					OFFSET 0.000000 -0.126496 -0.046041
					CHANNELS 3 Xrotation Yrotation Zrotation
					End Site
					{
						OFFSET 0.000000 0.000000 0.000000
					}
				}
			}
		}
	}
}
MOTION
Frames: 13
Frame Time: 0.033333
0.207515 -3.041762 0.891040 -2.495200 0.040200 -176.805600 -2.921100 0.633500 0.092700 -1.439300 -0.316500 0.068200 -2.537900 0.117800 1.580200 -0.368700 0.114800 -0.007800 5.643000 1.082700 -2.153200 -2.072800 0.028200 -5.193700 -5.426100 14.330900 1.817800 -25.858300 -13.057600 -11.514800 0.000000 0.000000 18.904400 -16.017400 24.484100 3.699500 0.000000 0.000000 0.000000 0.000000 0.000000 0.000000 -1.886700 -12.233500 1.085900 -11.792300 16.739200 -3.962900 0.000000 0.000000 -13.837600 -13.465500 -27.216100 2.691000 0.000000 0.000000 0.000000 0.000000 0.000000 0.000000 -2.629700 -0.175300 -43.025200 1.444700 0.000000 0.000000 -8.250300 -2.518400 0.874600 3.951700 0.000000 0.000000 0.518900 1.645600 26.734400 -3.733200 0.000000 0.000000 -4.306100 14.677200 15.189200 -1.249600 0.000000 0.000000 
0.207472 -3.041630 0.891042 -2.493400 0.032000 -176.801400 -2.941800 0.624900 0.094800 -1.446200 -0.301800 0.067900 -2.529100 0.111100 1.581200 -0.360700 0.124400 -0.012600 5.664100 1.124000 -2.194800 -2.105600 0.033200 -5.282400 -5.417400 14.299900 1.802400 -25.897500 -13.076400 -11.506000 0.000000 0.000000 18.917300 -16.011500 24.474600 3.699300 0.000000 0.000000 0.000000 0.000000 0.000000 0.000000 -1.880800 -12.220600 1.105000 -11.772900 16.745300 -3.975500 0.000000 0.000000 -13.853300 -13.433700 -27.228700 2.719800 0.000000 0.000000 0.000000 0.000000 0.000000 0.000000 -2.619500 -0.179500 -43.003700 1.450400 0.000000 0.000000 -8.269100 -2.563400 0.842500 4.002000 0.000000 0.000000 0.527700 1.639300 26.726300 -3.730700 0.000000 0.000000 -4.318900 14.663100 15.195500 -1.244200 0.000000 0.000000 
0.207394 -3.041373 0.891037 -2.474000 0.023600 -176.799000 -2.957600 0.622900 0.094300 -1.462000 -0.299200 0.068600 -2.512200 0.116700 1.577800 -0.353900 0.133700 -0.014000 5.690400 1.190500 -2.254600 -2.133600 0.032200 -5.403700 -5.387700 14.258600 1.773700 -25.924700 -13.115800 -11.453400 0.000000 0.000000 18.913500 -15.981500 24.465000 3.692400 0.000000 0.000000 0.000000 0.000000 0.000000 0.000000 -1.862800 -12.205100 1.129500 -11.768100 16.759800 -3.986100 0.000000 0.000000 -13.875600 -13.448800 -27.238000 2.704000 0.000000 0.000000 0.000000 0.000000 0.000000 0.000000 -2.583700 -0.182900 -42.977300 1.457600 0.000000 0.000000 -8.290800 -2.601800 0.811700 4.029500 0.000000 0.000000 0.564300 1.634600 26.709100 -3.731400 0.000000 0.000000 -4.343600 14.637300 15.215300 -1.245900 0.000000 0.000000 
0.207300 -3.041081 0.891024 -2.455100 0.018300 -176.803000 -2.971800 0.622700 0.094100 -1.478400 -0.295100 0.069200 -2.497900 0.122200 1.576500 -0.346900 0.140200 -0.016700 5.695700 1.225300 -2.282500 -2.128400 0.018400 -5.465100 -5.356600 14.226500 1.733300 -25.931800 -13.158800 -11.366100 0.000000 0.000000 18.906000 -15.978200 24.463300 3.696900 0.000000 0.000000 0.000000 0.000000 0.000000 0.000000 -1.842100 -12.196600 1.150100 -11.772400 16.782600 -3.998500 0.000000 0.000000 -13.894000 -13.490200 -27.230900 2.657200 0.000000 0.000000 0.000000 0.000000 0.000000 0.000000 -2.545900 -0.184100 -42.954300 1.460600 0.000000 0.000000 -8.310400 -2.612300 0.794400 4.038600 0.000000 0.000000 0.604700 1.634600 26.698800 -3.735400 0.000000 0.000000 -4.369300 14.618100 15.233900 -1.254000 0.000000 0.000000 
0.207201 -3.040786 0.891007 -2.428400 0.018600 -176.807800 -2.976100 0.623800 0.094700 -1.491000 -0.292800 0.069200 -2.472000 0.133500 1.577300 -0.341100 0.138700 -0.019100 5.671400 1.198400 -2.252200 -2.118400 0.007700 -5.429900 -5.347300 14.218600 1.685700 -25.946200 -13.187900 -11.286500 0.000000 0.000000 18.921600 -16.020200 24.474100 3.719300 0.000000 0.000000 0.000000 0.000000 0.000000 0.000000 -1.826900 -12.202500 1.165500 -11.748800 16.814100 -4.035000 0.000000 0.000000 -13.895200 -13.461400 -27.209500 2.649500 0.000000 0.000000 0.000000 0.000000 0.000000 0.000000 -2.498900 -0.181300 -42.933100 1.459300 0.000000 0.000000 -8.331300 -2.603700 0.778200 4.051000 0.000000 0.000000 0.655600 1.640800 26.689200 -3.742300 0.000000 0.000000 -4.395400 14.610300 15.252300 -1.249500 0.000000 0.000000 
0.207091 -3.040537 0.890989 -2.419000 0.017500 -176.799700 -2.997200 0.620100 0.090100 -1.503800 -0.289600 0.068900 -2.424800 0.148900 1.576200 -0.336200 0.132000 -0.025500 5.624000 1.144700 -2.178100 -2.139700 0.027200 -5.341400 -5.372000 14.220300 1.664800 -25.963500 -13.178500 -11.264000 0.000000 0.000000 18.980400 -16.045800 24.483700 3.728900 0.000000 0.000000 0.000000 0.000000 0.000000 0.000000 -1.815000 -12.210100 1.172300 -11.685200 16.837400 -4.088600 0.000000 0.000000 -13.885300 -13.364400 -27.188000 2.682700 0.000000 0.000000 0.000000 0.000000 0.000000 0.000000 -2.473000 -0.176500 -42.900400 1.462200 0.000000 0.000000 -8.351900 -2.595900 0.736000 4.061500 0.000000 0.000000 0.680000 1.645400 26.669800 -3.738200 0.000000 0.000000 -4.427300 14.597400 15.268400 -1.228200 0.000000 0.000000 
0.206947 -3.040276 0.890976 -2.400000 0.018600 -176.784000 -3.005200 0.610200 0.086000 -1.512100 -0.290600 0.067600 -2.376000 0.172600 1.569400 -0.331600 0.127000 -0.036700 5.562900 1.109300 -2.085500 -2.190600 0.091100 -5.238100 -5.396900 14.229700 1.659500 -25.964800 -13.154300 -11.267100 0.000000 0.000000 19.044100 -16.018000 24.482300 3.713300 0.000000 0.000000 0.000000 0.000000 0.000000 0.000000 -1.794200 -12.217200 1.171400 -11.627200 16.853600 -4.131800 0.000000 0.000000 -13.880300 -13.317100 -27.174300 2.684200 0.000000 0.000000 0.000000 0.000000 0.000000 0.000000 -2.435900 -0.166900 -42.859200 1.466900 0.000000 0.000000 -8.371600 -2.599100 0.678600 4.059800 0.000000 0.000000 0.714200 1.652900 26.649800 -3.732300 0.000000 0.000000 -4.456500 14.592200 15.274300 -1.210600 0.000000 0.000000 
0.206766 -3.040004 0.890971 -2.381100 0.026400 -176.771600 -3.000500 0.601200 0.083400 -1.514600 -0.299400 0.066500 -2.339000 0.198500 1.555100 -0.331700 0.125400 -0.048800 5.507900 1.100800 -1.983500 -2.235900 0.173100 -5.109400 -5.417300 14.245800 1.666800 -25.975500 -13.122700 -11.284800 0.000000 0.000000 19.092800 -15.985500 24.463800 3.695600 0.000000 0.000000 0.000000 0.000000 0.000000 0.000000 -1.776200 -12.210400 1.172200 -11.619000 16.862500 -4.150800 0.000000 0.000000 -13.893300 -13.362400 -27.168900 2.626800 0.000000 0.000000 0.000000 0.000000 0.000000 0.000000 -2.397600 -0.148500 -42.821100 1.469500 0.000000 0.000000 -8.390700 -2.601500 0.629000 4.054000 0.000000 0.000000 0.750900 1.669800 26.650400 -3.727900 0.000000 0.000000 -4.470900 14.605000 15.257100 -1.213300 0.000000 0.000000 
0.206581 -3.039753 0.890968 -2.383000 0.030400 -176.768700 -2.998800 0.590600 0.081200 -1.512700 -0.308400 0.064000 -2.319400 0.205400 1.541200 -0.333700 0.125800 -0.057600 5.485000 1.098300 -1.879100 -2.263200 0.241600 -4.941900 -5.445100 14.262100 1.681300 -26.062800 -13.069900 -11.325800 0.000000 0.000000 19.125700 -15.993200 24.465000 3.686000 0.000000 0.000000 0.000000 0.000000 0.000000 0.000000 -1.776200 -12.181600 1.182100 -11.649300 16.868100 -4.160100 0.000000 0.000000 -13.924000 -13.408500 -27.166400 2.576700 0.000000 0.000000 0.000000 0.000000 0.000000 0.000000 -2.380000 -0.135400 -42.794800 1.463000 0.000000 0.000000 -8.400400 -2.601800 0.597000 4.052900 0.000000 0.000000 0.763000 1.683400 26.662000 -3.716700 0.000000 0.000000 -4.484500 14.605800 15.235500 -1.222800 0.000000 0.000000 
0.206383 -3.039494 0.890961 -2.390700 0.030400 -176.781400 -2.987400 0.579100 0.080300 -1.509800 -0.319800 0.062600 -2.318300 0.199600 1.532000 -0.332000 0.121600 -0.057000 5.494900 1.078400 -1.771900 -2.291500 0.304900 -4.750800 -5.476100 14.277500 1.713600 -26.230000 -12.983700 -11.408200 0.000000 0.000000 19.141200 -15.997300 24.524000 3.650600 0.000000 0.000000 0.000000 0.000000 0.000000 0.000000 -1.774300 -12.147100 1.201500 -11.664800 16.880400 -4.182300 0.000000 0.000000 -13.957200 -13.418100 -27.147200 2.566200 0.000000 0.000000 0.000000 0.000000 0.000000 0.000000 -2.366500 -0.127400 -42.778400 1.450100 0.000000 0.000000 -8.399900 -2.613800 0.585400 4.048400 0.000000 0.000000 0.770000 1.694800 26.673000 -3.705700 0.000000 0.000000 -4.509100 14.580400 15.231700 -1.221000 0.000000 0.000000 
0.206182 -3.039219 0.890953 -2.405300 0.024300 -176.808800 -2.974700 0.562000 0.080000 -1.507800 -0.330400 0.062600 -2.326500 0.187000 1.535200 -0.327900 0.110200 -0.050800 5.500800 1.024600 -1.644100 -2.323100 0.392600 -4.534300 -5.490600 14.308500 1.763000 -26.402700 -12.890100 -11.525000 0.000000 0.000000 19.129500 -15.945200 24.624600 3.567400 0.000000 0.000000 0.000000 0.000000 0.000000 0.000000 -1.745000 -12.113000 1.215400 -11.634000 16.885400 -4.214600 0.000000 0.000000 -13.980400 -13.444900 -27.101000 2.551300 0.000000 0.000000 0.000000 0.000000 0.000000 0.000000 -2.357900 -0.126600 -42.758900 1.431700 0.000000 0.000000 -8.389400 -2.649600 0.584200 4.045000 0.000000 0.000000 0.770800 1.699900 26.664300 -3.695800 0.000000 0.000000 -4.547500 14.546700 15.263000 -1.219900 0.000000 0.000000 
0.205976 -3.038965 0.890953 -2.442500 0.021200 -176.850200 -2.979400 0.546400 0.081900 -1.510300 -0.341000 0.062600 -2.331700 0.174100 1.553400 -0.322500 0.090300 -0.039000 5.476300 0.926100 -1.480400 -2.337700 0.516100 -4.251600 -5.486100 14.379300 1.795800 -26.537700 -12.841500 -11.638600 0.000000 0.000000 19.083000 -15.886200 24.700100 3.475000 0.000000 0.000000 0.000000 0.000000 0.000000 0.000000 -1.706500 -12.063900 1.205300 -11.587700 16.862500 -4.226900 0.000000 0.000000 -13.994400 -13.480900 -27.061200 2.510600 0.000000 0.000000 0.000000 0.000000 0.000000 0.000000 -2.376200 -0.119800 -42.737500 1.417600 0.000000 0.000000 -8.381800 -2.687200 0.597900 4.063600 0.000000 0.000000 0.747700 1.708800 26.659500 -3.684200 0.000000 0.000000 -4.582500 14.531800 15.303100 -1.238400 0.000000 0.000000 
0.205750 -3.038696 0.890963 -2.479800 0.031100 -176.904400 -2.985000 0.542200 0.085700 -1.515700 -0.352800 0.062000 -2.323700 0.159400 1.576500 -0.316100 0.056900 -0.017900 5.438800 0.797000 -1.276600 -2.334900 0.663000 -3.876500 -5.492200 14.504400 1.807300 -26.646700 -12.855500 -11.742000 0.000000 0.000000 19.021500 -15.902900 24.703600 3.424500 0.000000 0.000000 0.000000 0.000000 0.000000 0.000000 -1.704400 -11.983700 1.176800 -11.569600 16.812800 -4.200200 0.000000 0.000000 -14.003900 -13.430800 -27.071000 2.507000 0.000000 0.000000 0.000000 0.000000 0.000000 0.000000 -2.397200 -0.098100 -42.724000 1.408600 0.000000 0.000000 -8.384400 -2.703300 0.633900 4.096800 0.000000 0.000000 0.732800 1.734900 26.682500 -3.683200 0.000000 0.000000 -4.600600 14.533800 15.328300 -1.267900 0.000000 0.000000 
